<svg width="51" height="51" viewBox="0 0 51 51" fill="none" xmlns="http://www.w3.org/2000/svg">
<g clip-path="url(#clip0_121_2588)">
<path d="M25.5016 0C25.5016 0 31.2281 4.30091 31.4743 9.91793C31.7205 15.535 25.5107 20.4468 25.5107 20.4468H25.4986C25.4986 20.4468 19.7721 16.1459 19.5259 10.5289C19.2797 4.91185 25.4895 0 25.4895 0" fill="#121212"/>
<path d="M25.5016 0C25.5016 0 31.2281 4.30091 31.4743 9.91793C31.7205 15.535 25.5107 20.4468 25.5107 20.4468H25.4986C25.4986 20.4468 19.7721 16.1459 19.5259 10.5289C19.2797 4.91185 25.4895 0 25.4895 0" fill="#121212"/>
<path d="M7.4407 7.49547C7.4407 7.49547 14.5288 6.47724 18.6839 10.2675C22.8389 14.0578 21.9301 21.924 21.9301 21.924L21.9209 21.9332C21.9209 21.9332 14.8328 22.9514 10.6778 19.1611C6.52277 15.3709 7.43158 7.50459 7.43158 7.50459" fill="#121212"/>
<path d="M0 25.5777C0 25.5777 4.28267 19.8391 9.8997 19.5746C15.5167 19.3102 20.4468 25.5047 20.4468 25.5047V25.5169C20.4468 25.5169 16.1641 31.2555 10.5471 31.5199C4.93009 31.7844 0 25.5898 0 25.5898" fill="#121212"/>
<path d="M7.55016 43.6138C7.55016 43.6138 6.51065 36.5287 10.2888 32.3646C14.0669 28.2004 21.9362 29.0819 21.9362 29.0819L21.9453 29.091C21.9453 29.091 22.9848 36.1761 19.2067 40.3402C15.4286 44.5044 7.55928 43.6229 7.55928 43.6229" fill="#121212"/>
<path d="M25.6566 51C25.6566 51 19.9059 46.7356 19.6232 41.1186C19.3405 35.5016 25.5198 30.5532 25.5198 30.5532H25.532C25.532 30.5532 31.2828 34.8177 31.5654 40.4347C31.8481 46.0517 25.6688 51 25.6688 51" fill="#121212"/>
<path d="M43.6687 43.3921C43.6687 43.3921 36.5866 44.4529 32.4103 40.69C28.234 36.924 29.0911 29.0547 29.0911 29.0547L29.1003 29.0456C29.1003 29.0456 36.1823 27.9848 40.3586 31.7477C44.5349 35.5137 43.6778 43.383 43.6778 43.383" fill="#121212"/>
<path d="M51 25.2675C51 25.2675 46.7508 31.0335 41.1368 31.3313C35.5228 31.6322 30.5532 25.4651 30.5532 25.4651V25.4529C30.5532 25.4529 34.7994 19.687 40.4164 19.3891C46.0304 19.0882 51 25.2553 51 25.2553" fill="#121212"/>
<path d="M43.3375 7.27636C43.3375 7.27636 44.4195 14.3554 40.6688 18.5438C36.918 22.7323 29.0426 21.8964 29.0426 21.8964L29.0335 21.8873C29.0335 21.8873 27.9515 14.8083 31.7022 10.6198C35.453 6.43137 43.3284 7.26724 43.3284 7.26724" fill="#121212"/>
<path d="M25.5016 28.781C27.3129 28.781 28.7812 27.3126 28.7812 25.5013C28.7812 23.69 27.3129 22.2217 25.5016 22.2217C23.6903 22.2217 22.2219 23.69 22.2219 25.5013C22.2219 27.3126 23.6903 28.781 25.5016 28.781Z" fill="#121212"/>
</g>
<defs>
<clipPath id="clip0_121_2588">
<rect width="51" height="51" fill="white"/>
</clipPath>
</defs>
</svg>
